HIERARCHY
ROOT Hips
{
    OFFSET   0.000000   0.000000   0.000000
    CHANNELS 6 Xposition Yposition Zposition Zrotation Xrotation Yrotation
    JOINT Chest
    {
        OFFSET   0.000000   8.007230   0.000000
        CHANNELS 3 Zrotation Xrotation Yrotation
        JOINT Chest2
        {
            OFFSET   0.000000  22.077100   0.000000
            CHANNELS 3 Zrotation Xrotation Yrotation
            JOINT Neck
            {
                OFFSET   0.000000  23.255100   0.000000
                CHANNELS 3 Zrotation Xrotation Yrotation
                JOINT Head
                {
                    OFFSET   0.000000  14.370100   1.956600
                    CHANNELS 3 Zrotation Xrotation Yrotation
                    End Site
                    {
                        OFFSET   0.000000  19.566000   0.000000
                    }
                }
            }
            JOINT LeftCollar
            {
                OFFSET   3.911900  19.017000  -0.467063
                CHANNELS 3 Zrotation Xrotation Yrotation
                JOINT LeftShoulder
                {
                    OFFSET  10.383700   0.000000   0.000000
                    CHANNELS 3 Zrotation Xrotation Yrotation
                    JOINT LeftElbow
                    {
                        OFFSET  26.662100   0.001193   0.000980
                        CHANNELS 3 Zrotation Xrotation Yrotation
                        JOINT LeftWrist
                        {
                            OFFSET  28.869000  -0.000059  -0.000082
                            CHANNELS 3 Zrotation Xrotation Yrotation
                            JOINT LeftFinger0
                            {
                                OFFSET   2.044650  -2.323450   3.252850
                                CHANNELS 3 Zrotation Xrotation Yrotation
                                JOINT LeftFinger01
                                {
                                    OFFSET   3.088130   0.000000   0.000000
                                    CHANNELS 3 Zrotation Xrotation Yrotation
                                    JOINT LeftFinger02
                                    {
                                        OFFSET   2.639460   0.000000   0.000000
                                        CHANNELS 3 Zrotation Xrotation Yrotation
                                        End Site
                                        {
                                            OFFSET   2.582190   0.000000   0.000000
                                        }
                                    }
                                }
                            }
                            JOINT LeftFinger1
                            {
                                OFFSET   8.364480   0.000000   3.252850
                                CHANNELS 3 Zrotation Xrotation Yrotation
                                JOINT LeftFinger11
                                {
                                    OFFSET   4.646930   0.000000   0.000000
                                    CHANNELS 3 Zrotation Xrotation Yrotation
                                    JOINT LeftFinger12
                                    {
                                        OFFSET   2.323470   0.000000   0.000000
                                        CHANNELS 3 Zrotation Xrotation Yrotation
                                        End Site
                                        {
                                            OFFSET   2.273050   0.000000   0.000000
                                        }
                                    }
                                }
                            }
                            JOINT LeftFinger2
                            {
                                OFFSET   8.364490   0.000016   1.078090
                                CHANNELS 3 Zrotation Xrotation Yrotation
                                JOINT LeftFinger21
                                {
                                    OFFSET   5.111610   0.000000   0.000000
                                    CHANNELS 3 Zrotation Xrotation Yrotation
                                    JOINT LeftFinger22
                                    {
                                        OFFSET   2.788150   0.000016   0.000000
                                        CHANNELS 3 Zrotation Xrotation Yrotation
                                        End Site
                                        {
                                            OFFSET   2.727660   0.000000   0.000000
                                        }
                                    }
                                }
                            }
                            JOINT LeftFinger3
                            {
                                OFFSET   7.899780   0.000015  -1.078090
                                CHANNELS 3 Zrotation Xrotation Yrotation
                                JOINT LeftFinger31
                                {
                                    OFFSET   4.646930   0.000000   0.000000
                                    CHANNELS 3 Zrotation Xrotation Yrotation
                                    JOINT LeftFinger32
                                    {
                                        OFFSET   2.323470   0.000000   0.000000
                                        CHANNELS 3 Zrotation Xrotation Yrotation
                                        End Site
                                        {
                                            OFFSET   2.273050   0.000000   0.000000
                                        }
                                    }
                                }
                            }
                            JOINT LeftFinger4
                            {
                                OFFSET   7.435090   0.000000  -3.252850
                                CHANNELS 3 Zrotation Xrotation Yrotation
                                JOINT LeftFinger41
                                {
                                    OFFSET   3.717550   0.000000   0.000000
                                    CHANNELS 3 Zrotation Xrotation Yrotation
                                    JOINT LeftFinger42
                                    {
                                        OFFSET   1.858770   0.000000   0.000000
                                        CHANNELS 3 Zrotation Xrotation Yrotation
                                        End Site
                                        {
                                            OFFSET   1.818440   0.000000   0.000000
                                        }
                                    }
                                }
                            }
                        }
                    }
                }
            }
            JOINT RightCollar
            {
                OFFSET  -3.911910  19.017000  -0.467062
                CHANNELS 3 Zrotation Xrotation Yrotation
                JOINT RightShoulder
                {
                    OFFSET -10.383700   0.000014   0.000000
                    CHANNELS 3 Zrotation Xrotation Yrotation
                    JOINT RightElbow
                    {
                        OFFSET -26.662100   0.001225   0.001091
                        CHANNELS 3 Zrotation Xrotation Yrotation
                        JOINT RightWrist
                        {
                            OFFSET -28.869000  -0.000020  -0.000085
                            CHANNELS 3 Zrotation Xrotation Yrotation
                            JOINT RightFinger0
                            {
                                OFFSET  -2.044650  -2.323490   3.252850
                                CHANNELS 3 Zrotation Xrotation Yrotation
                                JOINT RightFinger01
                                {
                                    OFFSET  -3.088130   0.000000   0.000000
                                    CHANNELS 3 Zrotation Xrotation Yrotation
                                    JOINT RightFinger02
                                    {
                                        OFFSET  -2.639460   0.000000   0.000000
                                        CHANNELS 3 Zrotation Xrotation Yrotation
                                        End Site
                                        {
                                            OFFSET  -2.582190   0.000000   0.000000
                                        }
                                    }
                                }
                            }
                            JOINT RightFinger1
                            {
                                OFFSET  -8.364480   0.000000   3.252850
                                CHANNELS 3 Zrotation Xrotation Yrotation
                                JOINT RightFinger11
                                {
                                    OFFSET  -4.646930   0.000000   0.000000
                                    CHANNELS 3 Zrotation Xrotation Yrotation
                                    JOINT RightFinger12
                                    {
                                        OFFSET  -2.323470   0.000000   0.000000
                                        CHANNELS 3 Zrotation Xrotation Yrotation
                                        End Site
                                        {
                                            OFFSET  -2.273050   0.000000   0.000000
                                        }
                                    }
                                }
                            }
                            JOINT RightFinger2
                            {
                                OFFSET  -8.364480   0.000000   1.078090
                                CHANNELS 3 Zrotation Xrotation Yrotation
                                JOINT RightFinger21
                                {
                                    OFFSET  -5.111620   0.000000   0.000000
                                    CHANNELS 3 Zrotation Xrotation Yrotation
                                    JOINT RightFinger22
                                    {
                                        OFFSET  -2.788160   0.000000   0.000000
                                        CHANNELS 3 Zrotation Xrotation Yrotation
                                        End Site
                                        {
                                            OFFSET  -2.727660   0.000000   0.000000
                                        }
                                    }
                                }
                            }
                            JOINT RightFinger3
                            {
                                OFFSET  -7.899780   0.000000  -1.078090
                                CHANNELS 3 Zrotation Xrotation Yrotation
                                JOINT RightFinger31
                                {
                                    OFFSET  -4.646930   0.000000   0.000000
                                    CHANNELS 3 Zrotation Xrotation Yrotation
                                    JOINT RightFinger32
                                    {
                                        OFFSET  -2.323470   0.000000   0.000000
                                        CHANNELS 3 Zrotation Xrotation Yrotation
                                        End Site
                                        {
                                            OFFSET  -2.273050   0.000000   0.000000
                                        }
                                    }
                                }
                            }
                            JOINT RightFinger4
                            {
                                OFFSET  -7.435090   0.000000  -3.252850
                                CHANNELS 3 Zrotation Xrotation Yrotation
                                JOINT RightFinger41
                                {
                                    OFFSET  -3.717550   0.000000   0.000000
                                    CHANNELS 3 Zrotation Xrotation Yrotation
                                    JOINT RightFinger42
                                    {
                                        OFFSET  -1.858760   0.000000   0.000000
                                        CHANNELS 3 Zrotation Xrotation Yrotation
                                        End Site
                                        {
                                            OFFSET  -1.818440   0.000000   0.000000
                                        }
                                    }
                                }
                            }
                        }
                    }
                }
            }
        }
    }
    JOINT LeftHip
    {
        OFFSET   9.783030   0.000000   0.000000
        CHANNELS 3 Zrotation Xrotation Yrotation
        JOINT LeftKnee
        {
            OFFSET   0.000063 -41.789100   0.000608
            CHANNELS 3 Zrotation Xrotation Yrotation
            JOINT LeftAnkle
            {
                OFFSET   0.000048 -41.133200  -0.000184
                CHANNELS 3 Zrotation Xrotation Yrotation
                JOINT LeftToe
                {
                    OFFSET   0.000000  -6.358960  14.674500
                    CHANNELS 3 Zrotation Xrotation Yrotation
                    End Site
                    {
                        OFFSET   0.000000   0.000000   3.913200
                    }
                }
            }
        }
    }
    JOINT RightHip
    {
        OFFSET  -9.783030   0.000000   0.000000
        CHANNELS 3 Zrotation Xrotation Yrotation
        JOINT RightKnee
        {
            OFFSET   0.000071 -41.789100   0.001239
            CHANNELS 3 Zrotation Xrotation Yrotation
            JOINT RightAnkle
            {
                OFFSET   0.000037 -41.133200  -0.000166
                CHANNELS 3 Zrotation Xrotation Yrotation
                JOINT RightToe
                {
                    OFFSET   0.000000  -6.358960  14.674500
                    CHANNELS 3 Zrotation Xrotation Yrotation
                    End Site
                    {
                        OFFSET   0.000000   0.000000   3.913200
                    }
                }
            }
        }
    }
}
MOTION
Frames: 6
Frame Time:   0.016667
 -1.768050  89.577500  -4.413330  -1.138030  -6.280650   0.664008   0.572921   3.061340  -0.005220   1.148590   6.122470  -0.041231   1.497800  -1.084360   0.027193   2.474930  -2.193900  -1.453490  -5.409030   1.415180  -2.529060 -71.992900  21.167700   3.837870  -2.551470  -8.826280 -17.025200  14.486300 -26.154200   6.082040  48.321500  48.704500 -94.520300 -31.700700  -0.004815   0.003591 -10.850300  -0.002656  -0.005409 -32.004600   5.638680  -8.934490 -26.541500  -0.004516   0.006328 -18.576600  -0.005376   0.001832 -28.178800  -3.630010   6.740180 -35.044100  -0.007905   0.005833 -23.339400  -0.008025  -0.000000 -28.016300  -3.610820   6.750430 -33.635100  -0.010289  -0.000236 -22.401000  -0.011359   0.012254 -32.863000  -4.169430   6.421440 -49.645400   0.000556   0.000481 -33.063900   0.000167  -0.002115  11.039000   1.662020   4.806480  66.949200  14.697900  -7.964920  -4.128560  -1.607470  16.792500 -12.002000 -12.558200   3.271170 -46.686200  44.754100  89.630100  25.545500   0.007899  -0.003717   7.772750   0.000000  -0.002606  34.312700   9.555510  13.670900  29.013300  -0.000843  -0.005327  20.309300  -0.000237  -0.000128  29.405200   3.006830   5.317350  44.317300  -0.003361  -0.004364  29.515300  -0.001344  -0.000348  28.620300   0.877568   1.608340  37.737800  -0.002975  -0.001664  25.133300  -0.003021  -0.000235  37.648900  -0.420173  -0.544644  56.476300  -0.002404  -0.006385  37.613200  -0.001236  -0.002197   0.712166   6.840000   0.316970   1.379410   0.014083  -0.372394  -1.811470  -1.831790  -1.017210   0.000000   0.000000   0.000000   4.863070   4.706840  -2.188600  -2.597950   5.345990  -0.162327  -1.803890  -5.526370  -1.279690   0.000000   0.000000  -0.000000
 -1.762160  89.577500  -4.406840  -1.136970  -6.296550   0.672301   0.572831   3.068430  -0.005213   1.148420   6.136660  -0.041245   1.499140  -1.083840   0.027188   2.476070  -2.192930  -1.456130  -5.412800   1.406220  -2.529110 -71.996900  21.181100   3.846590  -2.549480  -8.837340 -17.037900  14.471600 -26.132200   6.068820  48.289500  48.683300 -94.477400 -31.641000  -0.004818   0.003590 -10.820500  -0.002663  -0.005405 -32.009000   5.591290  -8.859320 -26.541100  -0.004516   0.006329 -18.576600  -0.005375   0.001833 -28.173300  -3.626410   6.735090 -34.988600  -0.007904   0.005839 -23.302400  -0.008023   0.000027 -28.011900  -3.607360   6.745260 -33.597400  -0.010287  -0.000237 -22.375800  -0.011357   0.012255 -32.853000  -4.164910   6.416980 -49.629700   0.000557   0.000479 -33.053400   0.000167  -0.002112  11.039000   1.662180   4.805690  66.945800  14.674700  -7.963880  -4.123110  -1.607550  16.782300 -12.004200 -12.587200   3.253990 -46.659200  44.741600  89.611600  25.579600   0.007916  -0.003756   7.789800   0.000000  -0.002605  34.332000   9.537960  13.637800  29.024700  -0.000844  -0.005338  20.317300  -0.000238  -0.000125  29.419300   2.982220   5.270760  44.334500  -0.003361  -0.004360  29.526700  -0.001347  -0.000348  28.621900   0.848610   1.555160  37.752200  -0.002974  -0.001663  25.142900  -0.003023  -0.000235  37.663500  -0.424035  -0.549358  56.498300  -0.002403  -0.006390  37.627800  -0.001235  -0.002199   0.711780   6.845300   0.322627   1.379390   0.053215  -0.378017  -1.807670  -1.861770  -1.026140  -0.000000   0.000000   0.000000   4.862580   4.719700  -2.174010  -2.605870   5.366450  -0.159330  -1.794160  -5.551760  -1.307820   0.000000   0.000000   0.000000
 -1.751950  89.577600  -4.395540  -1.135290  -6.318300   0.685717   0.572741   3.075530  -0.005207   1.148250   6.150850  -0.041340   1.502860  -1.080230   0.027182   2.479640  -2.186150  -1.463720  -5.418940   1.397230  -2.529230 -72.002700  21.194300   3.860440  -2.542400  -8.848200 -17.055000  14.455600 -26.099700   6.055050  48.221900  48.631200 -94.387200 -31.555100  -0.004821   0.003589 -10.777500  -0.002674  -0.005401 -32.013000   5.518610  -8.744940 -26.537900  -0.004515   0.006334 -18.576600  -0.005375   0.001837 -28.165200  -3.619440   6.724530 -34.905700  -0.007901   0.005851 -23.247200  -0.008019   0.000066 -28.005100  -3.600580   6.734600 -33.538800  -0.010282  -0.000239 -22.336800  -0.011353   0.012260 -32.828400  -4.155260   6.408200 -49.591600   0.000561   0.000476 -33.028000   0.000168  -0.002106  11.039200   1.662350   4.801620  66.942400  14.651600  -7.962840  -4.112220  -1.607780  16.757000 -12.008100 -12.618300   3.228280 -46.628500  44.729000  89.593100  25.628100   0.007946  -0.003796   7.814060   0.000000  -0.002604  34.360100   9.520600  13.600000  29.043700  -0.000847  -0.005359  20.330600  -0.000239  -0.000121  29.438300   2.957600   5.223840  44.360000  -0.003361  -0.004357  29.543700  -0.001349  -0.000349  28.623400   0.819649   1.501970  37.778900  -0.002973  -0.001661  25.160800  -0.003026  -0.000235  37.687200  -0.430325  -0.557029  56.534000  -0.002402  -0.006404  37.651600  -0.001232  -0.002201   0.710829   6.861330   0.332491   1.379370   0.092348  -0.387851  -1.801830  -1.891740  -1.039570   0.000000   0.000000  -0.000000   4.861620   4.732580  -2.151930  -2.618580   5.400580  -0.151330  -1.779190  -5.591410  -1.354270   0.000000   0.000000  -0.000000
 -1.742770  89.577700  -4.385740  -1.134260  -6.324770   0.694905   0.572799   3.072140  -0.005468   1.148380   6.144070  -0.041868   1.509350  -1.069660   0.027185   2.486070  -2.164560  -1.476930  -5.424050   1.397190  -2.529420 -72.010600  21.180500   3.872280  -2.531600  -8.846510 -17.060200  14.471500 -26.079500   6.063430  48.127900  48.544900 -94.262700 -31.516000  -0.004804   0.003591 -10.757900  -0.002679  -0.005402 -32.009200   5.472380  -8.674290 -26.529500  -0.004509   0.006342 -18.571600  -0.005370   0.001846 -28.161400  -3.609590   6.707750 -34.860300  -0.007896   0.005864 -23.217000  -0.008014   0.000082 -28.001300  -3.590770   6.717800 -33.501200  -0.010275  -0.000245 -22.311800  -0.011347   0.012273 -32.790600  -4.139230   6.395390 -49.532900   0.000566   0.000473 -32.988900   0.000171  -0.002096  11.039400   1.662360   4.791650  66.946100  14.653000  -7.963330  -4.094370  -1.625520  16.716700 -12.003700 -12.620700   3.212110 -46.618300  44.743100  89.614400  25.651700   0.007975  -0.003775   7.825860   0.000000  -0.002604  34.381700   9.522010  13.594500  29.062400  -0.000852  -0.005377  20.343700  -0.000241  -0.000118  29.448900   2.957810   5.223460  44.376200  -0.003361  -0.004357  29.554500  -0.001346  -0.000350  28.623200   0.821640   1.505510  37.813100  -0.002974  -0.001658  25.183600  -0.003025  -0.000238  37.705800  -0.435269  -0.563026  56.562000  -0.002402  -0.006425  37.670300  -0.001229  -0.002200   0.706327   6.895800   0.342419   1.379490   0.051870  -0.397662  -1.798530  -1.874390  -1.046600  -0.000000   0.000000  -0.000000   4.860650   4.730910  -2.137250  -2.627320   5.428870  -0.134314  -1.769470  -5.616760  -1.393210  -0.000000   0.000000   0.000000
 -1.733510  89.577700  -4.374830  -1.133150  -6.327480   0.704980   0.573138   3.066100  -0.006004   1.149070   6.131990  -0.042865   1.516950  -1.053920   0.027187   2.494810  -2.132010  -1.493020  -5.428770   1.397190  -2.529550 -72.021800  21.159600   3.878790  -2.517020  -8.845020 -17.061000  14.502400 -26.069600   6.079950  48.037700  48.456700 -94.143500 -31.490900  -0.004777   0.003598 -10.745400  -0.002687  -0.005405 -32.003000   5.436630  -8.620710 -26.519700  -0.004499   0.006353 -18.563800  -0.005363   0.001858 -28.158300  -3.603100   6.696430 -34.824300  -0.007889   0.005883 -23.193000  -0.008007   0.000094 -27.997800  -3.584280   6.706480 -33.468400  -0.010266  -0.000252 -22.290000  -0.011340   0.012290 -32.746700  -4.128330   6.386900 -49.465800   0.000573   0.000470 -32.944200   0.000177  -0.002084  11.039700   1.662260   4.780320  66.953400  14.654400  -7.966460  -4.071970  -1.651970  16.671700 -11.990900 -12.621100   3.203430 -46.628700  44.765100  89.647500  25.660900   0.008009  -0.003754   7.830440   0.000000  -0.002605  34.396000   9.529180  13.594000  29.073600  -0.000856  -0.005400  20.351500  -0.000244  -0.000117  29.454400   2.959290   5.223410  44.384000  -0.003361  -0.004358  29.559800  -0.001342  -0.000350  28.622600   0.830577   1.521750  37.836900  -0.002975  -0.001656  25.199400  -0.003025  -0.000241  37.722100  -0.439592  -0.568297  56.586500  -0.002402  -0.006452  37.686600  -0.001225  -0.002197   0.698983   6.925840   0.350620   1.379670  -0.004153  -0.406087  -1.795310  -1.848930  -1.053150   0.000000   0.000000   0.000000   4.860140   4.729220  -2.128740  -2.636370   5.455320  -0.122302  -1.761830  -5.640570  -1.426240   0.000000   0.000000   0.000000
 -1.724910  89.577700  -4.362180  -1.131560  -6.331680   0.718494   0.574553   3.060110  -0.006507   1.151910   6.120020  -0.043896   1.524040  -1.034510   0.027180   2.506060  -2.093080  -1.510270  -5.431930   1.397520  -2.529530 -72.037700  21.144300   3.875220  -2.498180  -8.856360 -17.056800  14.539300 -26.078400   6.098190  47.998800  48.407500 -94.092800 -31.468200  -0.004760   0.003614 -10.734100  -0.002705  -0.005413 -31.996000   5.411040  -8.583190 -26.510900  -0.004492   0.006365 -18.557700  -0.005357   0.001870 -28.153700  -3.612100   6.713930 -34.790700  -0.007880   0.005908 -23.170600  -0.008000   0.000112 -27.993300  -3.593200   6.723800 -33.442100  -0.010256  -0.000261 -22.272400  -0.011330   0.012310 -32.702700  -4.134590   6.405150 -49.401500   0.000579   0.000466 -32.901400   0.000184  -0.002073  11.040000   1.661730   4.770530  66.962800  14.649100  -7.978260  -4.051730  -1.669540  16.633000 -11.973600 -12.584300   3.201730 -46.666200  44.782700  89.673600  25.640900   0.008057  -0.003774   7.820450   0.000000  -0.002602  34.387700   9.550650  13.623000  29.071200  -0.000854  -0.005432  20.349900  -0.000249  -0.000115  29.450000   2.973600   5.248310  44.379600  -0.003361  -0.004357  29.556800  -0.001341  -0.000347  28.621200   0.856365   1.569020  37.838200  -0.002979  -0.001662  25.200300  -0.003024  -0.000244  37.733100  -0.442667  -0.572074  56.603000  -0.002402  -0.006483  37.697600  -0.001220  -0.002196   0.691264   6.930050   0.353191   1.379910  -0.023679  -0.409204  -1.790880  -1.833890  -1.062110  -0.000000   0.000000   0.000000   4.860180   4.730680  -2.127520  -2.648270   5.476520  -0.123884  -1.757500  -5.665980  -1.442650   0.000000   0.000000   0.000000
